<svg xmlns="http://www.w3.org/2000/svg" version="1.1" viewBox="0.00 0.00 720.00 720.00" width="720.00" height="720.00">

<g stroke-width="2.00" fill="none" stroke-linecap="butt">
<!-- 保留所有原有的path元素 -->
<path stroke="#8291ed" d="M 72.04 193.54 Q 67.52 201.42 65.60 210.14 Q 64.34 215.86 64.34 227.90 Q 64.29 363.32 64.28 498.75 Q 64.28 512.74 72.04 525.95"/>
<path stroke="#80f4e8" d="M 72.04 525.95 Q 79.89 539.37 95.24 548.24 Q 153.44 581.87 211.55 615.40"/>
<path stroke="#80e7e4" d="M 211.55 615.40 Q 266.41 647.05 321.10 678.66 Q 333.24 685.68 335.44 686.68 C 348.41 692.61 363.20 693.48 376.60 689.62 Q 382.30 687.99 398.06 678.89 Q 513.20 612.44 626.96 546.73 Q 639.53 539.47 647.38 526.17"/>
<path stroke="#80f4e8" d="M 647.38 526.17 Q 655.26 512.70 655.27 496.75 Q 655.35 411.39 655.33 391.75 Q 655.32 383.83 651.34 378.98 C 645.53 371.90 636.01 370.67 628.02 375.27 Q 568.11 409.84 508.21 444.42"/>
<path stroke="#80e7e4" d="M 508.21 444.42 Q 507.23 444.87 506.24 444.15"/>
<path stroke="#80f4e8" d="M 506.24 444.15 L 360.01 359.72"/>
<path stroke="#d5cdff" d="M 360.01 359.72 Q 491.13 284.01 622.26 208.32 C 629.85 203.94 634.51 201.77 636.87 194.57 C 639.52 186.44 635.79 177.80 628.44 173.55 Q 568.12 138.71 507.79 103.96"/>
<path stroke="#b9a3ff" d="M 507.79 103.96 Q 506.52 103.25 505.26 102.52 Q 428.81 58.32 398.03 40.54 Q 383.21 31.98 377.35 30.21 Q 359.84 24.92 342.03 30.29 Q 336.09 32.08 323.22 39.54 Q 296.68 54.91 94.41 171.67 Q 79.90 180.05 72.04 193.54"/>
<path stroke="#8f71ff" d="M 507.79 103.96 Q 507.93 104.82 506.12 104.83 A 0.53 0.46 -56.9 0 0 505.87 104.90 L 212.09 274.51"/>
<path stroke="#3c35ed" d="M 212.09 274.51 L 72.04 193.54"/>
<path stroke="#55c2e8" d="M 360.01 359.72 Q 359.58 359.82 359.05 359.72"/>
<path stroke="#6378f2" d="M 359.05 359.72 L 212.56 275.04"/>
<path stroke="#585fed" d="M 212.56 275.04 Q 212.34 274.92 212.09 274.51"/>
<path stroke="#113ce0" d="M 212.56 275.04 Q 212.17 275.90 212.17 276.76 Q 211.96 359.76 212.09 442.75 Q 212.09 443.53 212.53 444.56"/>
<path stroke="#0386d6" d="M 212.53 444.56 L 72.04 525.95"/>
<path stroke="#00dccd" d="M 506.24 444.15 Q 505.32 446.56 502.46 448.21 Q 368.49 525.62 311.31 558.50 Q 291.71 569.77 272.01 581.19 Q 232.25 604.25 222.56 609.87 C 219.12 611.87 215.26 613.49 211.55 615.40"/>
<path stroke="#0e9fdb" d="M 359.05 359.72 L 212.53 444.56"/>
<path stroke="#00dccd" d="M 647.38 526.17 Q 643.24 523.52 639.00 521.07 Q 575.45 484.33 511.92 447.57 Q 509.94 446.42 508.21 444.42"/>
</g>

<path fill="#7347ff" d="M 507.79 103.96 Q 507.93 104.82 506.12 104.83 A 0.53 0.46 -56.9 0 0 505.87 104.90 L 212.09 274.51 L 72.04 193.54 Q 79.90 180.05 94.41 171.67 Q 296.68 54.91 323.22 39.54 Q 336.09 32.08 342.03 30.29 Q 359.84 24.92 377.35 30.21 Q 383.21 31.98 398.03 40.54 Q 428.81 58.32 505.26 102.52 Q 506.52 103.25 507.79 103.96 Z"/>
<path fill="#aa9aff" d="M 360.01 359.72 Q 359.58 359.82 359.05 359.72 L 212.56 275.04 Q 212.34 274.92 212.09 274.51 L 505.87 104.90 A 0.53 0.46 -56.9 0 1 506.12 104.83 Q 507.93 104.82 507.79 103.96 Q 568.12 138.71 628.44 173.55 C 635.79 177.80 639.52 186.44 636.87 194.57 C 634.51 201.77 629.85 203.94 622.26 208.32 Q 491.13 284.01 360.01 359.72 Z"/>
<path fill="#0523db" d="M 72.04 193.54 L 212.09 274.51 Q 212.34 274.92 212.56 275.04 Q 212.17 275.90 212.17 276.76 Q 211.96 359.76 212.09 442.75 Q 212.09 443.53 212.53 444.56 L 72.04 525.95 Q 64.28 512.74 64.28 498.75 Q 64.29 363.32 64.34 227.90 Q 64.34 215.86 65.60 210.14 Q 67.52 201.42 72.04 193.54 Z"/>
<path fill="#1c55e4" d="M 359.05 359.72 L 212.53 444.56 Q 212.09 443.53 212.09 442.75 Q 211.96 359.76 212.17 276.76 Q 212.17 275.90 212.56 275.04 L 359.05 359.72 Z"/>
<path fill="#00e9d1" d="M 360.01 359.72 L 506.24 444.15 Q 505.32 446.56 502.46 448.21 Q 368.49 525.62 311.31 558.50 Q 291.71 569.77 272.01 581.19 Q 232.25 604.25 222.56 609.87 C 219.12 611.87 215.26 613.49 211.55 615.40 Q 153.44 581.87 95.24 548.24 Q 79.89 539.37 72.04 525.95 L 212.53 444.56 L 359.05 359.72 Q 359.58 359.82 360.01 359.72 Z"/>
<path fill="#00e9d1" d="M 647.38 526.17 Q 643.24 523.52 639.00 521.07 Q 575.45 484.33 511.92 447.57 Q 509.94 446.42 508.21 444.42 Q 568.11 409.84 628.02 375.27 C 636.01 370.67 645.53 371.90 651.34 378.98 Q 655.32 383.83 655.33 391.75 Q 655.35 411.39 655.27 496.75 Q 655.26 512.70 647.38 526.17 Z"/>
<path fill="#00cec9" d="M 508.21 444.42 Q 509.94 446.42 511.92 447.57 Q 575.45 484.33 639.00 521.07 Q 643.24 523.52 647.38 526.17 Q 639.53 539.47 626.96 546.73 Q 513.20 612.44 398.06 678.89 Q 382.30 687.99 376.60 689.62 C 363.20 693.48 348.41 692.61 335.44 686.68 Q 333.24 685.68 321.10 678.66 Q 266.41 647.05 211.55 615.40 C 215.26 613.49 219.12 611.87 222.56 609.87 Q 232.25 604.25 272.01 581.19 Q 291.71 569.77 311.31 558.50 Q 368.49 525.62 502.46 448.21 Q 505.32 446.56 506.24 444.15 Q 507.23 444.87 508.21 444.42 Z"/>
</svg>